<svg id="Livello_1" data-name="Livello 1" xmlns="http://www.w3.org/2000/svg" xmlns:xlink="http://www.w3.org/1999/xlink" viewBox="0 0 36 36"><defs><linearGradient id="Sfumatura_senza_nome_10" x1="-1729.53" y1="138.68" x2="-1728.59" y2="139.01" gradientTransform="translate(62265 -4980) scale(36)" gradientUnits="userSpaceOnUse"><stop offset="0" stop-color="#001769"/><stop offset="1" stop-color="#4dabf5"/></linearGradient></defs><title>filipporivolta-logo-blue</title><circle id="Oval" cx="18" cy="18" r="18" style="fill:url(#Sfumatura_senza_nome_10)"/><path id="Shape" d="M26.8,16.1,17,6.3a1.82,1.82,0,0,0-1.4-.6,2,2,0,0,0-1.4,3.4l8.5,8.5-8.5,8.5A2,2,0,1,0,17,28.9L26.9,19a1.68,1.68,0,0,0,.6-1.4A2,2,0,0,0,26.8,16.1Z" style="fill:#fafafa"/><path id="Shape-2" d="M11.6,22.4a1.82,1.82,0,0,1-.4-2.5l4.5-4.5a1.82,1.82,0,0,1,2.5.4,1.82,1.82,0,0,1,.4,2.5l-4.5,4.5A1.82,1.82,0,0,1,11.6,22.4Z" style="fill:#fff"/></svg>